<svg version="1.1" xmlns="http://www.w3.org/2000/svg" xmlns:xlink="http://www.w3.org/1999/xlink" x="0px" y="0px"
    viewBox="0 0 256 256" enable-background="new 0 0 256 256" xml:space="preserve">
    <path fill-rule="evenodd" clip-rule="evenodd"
        d="M165.7,194.2V214L47,214.2v-20H165.7z M206,148.9v96.5H16l-5.7-0.2H10v-96.3h20.4v81h155.4v-81H206z M50.6,160.4l117.9,8.5l-2.1,19.7l-118.1-8.5L50.6,160.4z M61.7,118.8l114.8,24.2l-6.6,19l-114.5-24L61.7,118.8z M89.1,73.3l102.2,47.2l-12.9,16.9L76.1,90.2L89.1,73.3z M149.5,29.8l66.7,76.6l-20.7,11.3l-66.7-76.6L149.5,29.8z M225.6,10.6l20.4,91.4l-25.3,3.3l-20.1-91.1L225.6,10.6z" />
    </g>
    </g>
</svg>