<?xml version="1.0" standalone="no"?>
<!DOCTYPE svg PUBLIC "-//W3C//DTD SVG 20010904//EN"
 "http://www.w3.org/TR/2001/REC-SVG-20010904/DTD/svg10.dtd">
<svg version="1.0" xmlns="http://www.w3.org/2000/svg"
 width="500.000000pt" height="500.000000pt" viewBox="0 0 500.000000 500.000000"
 preserveAspectRatio="xMidYMid meet">
<metadata>
Created by potrace 1.14, written by Peter Selinger 2001-2017
</metadata>
<g transform="translate(0.000000,500.000000) scale(0.100000,-0.100000)"
fill="#000000" stroke="none">
<path d="M0 2500 l0 -2500 2500 0 2500 0 0 2500 0 2500 -2500 0 -2500 0 0
-2500z m3982 1526 c87 -13 191 -39 228 -56 85 -40 176 -89 232 -127 78 -53
198 -159 198 -176 0 -7 -19 -32 -43 -57 -23 -25 -69 -76 -101 -113 -32 -37
-62 -67 -67 -67 -4 0 -20 13 -36 28 -74 73 -260 192 -301 192 -7 0 -20 4 -30
10 -22 12 -209 40 -268 40 -72 0 -233 -29 -314 -56 -77 -26 -191 -84 -217
-109 -8 -8 -18 -15 -22 -15 -4 0 -40 -33 -80 -72 -78 -77 -165 -201 -200 -283
-12 -27 -25 -57 -30 -65 -4 -8 -18 -49 -30 -90 -12 -41 -26 -88 -31 -105 -35
-112 -48 -513 -22 -688 17 -118 53 -260 82 -322 49 -106 63 -136 85 -175 71
-127 225 -271 358 -334 91 -43 157 -62 279 -81 122 -19 165 -19 280 0 154 25
269 68 356 133 l32 24 0 384 0 384 -307 2 -308 3 -3 158 -3 157 491 0 490 0 0
-629 0 -629 -33 -28 c-118 -101 -185 -143 -327 -207 -158 -72 -385 -112 -585
-104 -134 5 -255 20 -309 36 -17 6 -56 17 -86 26 -30 9 -83 30 -118 46 -35 16
-65 29 -68 29 -2 0 -27 14 -56 32 -85 51 -199 141 -255 201 l-53 55 -2 -181
-3 -182 -160 -3 c-88 -1 -170 0 -182 3 l-23 5 0 782 c0 759 12 1224 39 1508 6
58 13 137 16 175 l5 70 -19 -50 c-10 -27 -36 -104 -56 -170 -20 -66 -41 -129
-45 -140 -5 -11 -25 -74 -45 -140 -54 -175 -41 -138 -201 -580 -25 -71 -53
-144 -60 -162 -8 -17 -14 -35 -14 -39 0 -7 -42 -127 -75 -214 -8 -19 -28 -75
-45 -125 -18 -49 -38 -106 -45 -125 -8 -19 -28 -75 -45 -125 -18 -49 -36 -99
-41 -110 -5 -11 -13 -33 -18 -50 -23 -75 -70 -196 -81 -210 -18 -22 -269 -18
-281 5 -14 25 -35 81 -74 190 -20 58 -41 114 -45 125 -4 11 -25 67 -45 125
-20 58 -41 114 -45 125 -9 22 -76 209 -135 375 -20 58 -41 114 -45 125 -4 11
-25 67 -45 125 -20 58 -41 114 -45 125 -21 53 -82 230 -111 320 -17 55 -35
109 -39 120 -5 11 -25 74 -45 140 -20 66 -40 129 -45 140 -5 11 -20 56 -34
100 l-26 80 6 -135 c3 -74 10 -169 16 -210 6 -46 12 -485 15 -1128 l5 -1052
-174 2 -173 3 -3 1488 -2 1487 243 0 243 0 34 -102 c18 -57 39 -116 46 -133 7
-16 22 -59 34 -95 37 -109 86 -248 135 -385 26 -71 52 -148 60 -170 7 -22 34
-98 60 -170 25 -71 59 -168 75 -215 15 -47 49 -143 75 -215 58 -164 133 -389
175 -525 17 -58 39 -125 47 -150 l16 -44 18 54 c9 30 27 89 39 130 12 41 25
86 30 100 5 14 18 59 30 100 25 83 107 334 120 365 4 11 18 49 30 85 35 103
81 233 90 255 10 24 82 230 116 335 14 41 29 84 34 95 5 11 19 49 30 85 12 36
25 74 30 85 5 11 20 54 34 95 14 41 46 134 72 205 25 72 52 148 59 170 l12 40
242 3 241 2 0 -196 0 -196 63 63 c35 35 77 75 93 89 54 46 189 132 244 157 30
13 64 28 75 33 66 30 227 72 340 89 96 14 274 12 377 -3z"/>
</g>
</svg>
